# xmcd
# Track frame offsets:
# 150
# 14742
# 27302
# 40172
# 53125
# 68096
# 80044
# 90031
# 101269
# 116779
# 130221
# 141501
# 155545
# 168658
# 184605
# 200490
# 221206
# 238262
#
# Disc length: 3327 seconds
# Revision: 0
# Processed by: cddbd v1.5.2PL0 Copyright (c) Steve Scherf et al.
# Submitted via: VisiTrax 2.11.3.279 - For more info visit www.synapsa.com
#
DISCID=040cfd12
DTITLE=Various Artist - These Boots Were Mad For Dancing...
DYEAR=1900
DGENRE=Country
TTITLE0=Line Dancing
TTITLE1=Baby's Got Time For Me
TTITLE2=Hey Goodlooking
TTITLE3=Walking After Midnight
TTITLE4=Let Me Dance With You
TTITLE5=Start With The Talking
TTITLE6=I Tried At First Not To (Fall In Love With You)
TTITLE7=If You Don't Think I'm Leaving
TTITLE8=Zydeco Ball
TTITLE9=When Daddy Played The Fiddle
TTITLE10=Cotton Eyed Joe
TTITLE11=Guitar Boogie
TTITLE12=You Left The Water Running
TTITLE13=Abilene
TTITLE14=Gentle On My Mind
TTITLE15=Orange Blossom Guitars
TTITLE16=Midnight Flyer
TTITLE17=Showboat Gambler
EXTD=
EXTT0=
EXTT1=
EXTT2=
EXTT3=
EXTT4=
EXTT5=
EXTT6=
EXTT7=
EXTT8=
EXTT9=
EXTT10=
EXTT11=
EXTT12=
EXTT13=
EXTT14=
EXTT15=
EXTT16=
EXTT17=
PLAYORDER=
